<?xml version="1.0" standalone="no"?>
<!DOCTYPE svg PUBLIC "-//W3C//DTD SVG 1.1//EN" "http://www.w3.org/Graphics/SVG/1.1/DTD/svg11.dtd" >
<svg xmlns="http://www.w3.org/2000/svg" xmlns:xlink="http://www.w3.org/1999/xlink" version="1.1">
<metadata>
Created by FontForge 20170731 at Wed May 20 05:12:45 2020
 By Aleksey,,,
</metadata>
<defs>
<font id="AfronikSoft-Soft" horiz-adv-x="452" >
  <font-face 
    font-family="Afronik Soft Soft"
    font-weight="400"
    font-stretch="normal"
    units-per-em="1000"
    panose-1="0 0 0 0 0 0 0 0 0 0"
    ascent="800"
    descent="-200"
    x-height="700"
    cap-height="700"
    bbox="19 -250 694 833"
    underline-thickness="50"
    underline-position="-225"
    unicode-range="U+0020-007D"
  />
<missing-glyph horiz-adv-x="250" 
 />
    <glyph glyph-name=".notdef" horiz-adv-x="250" 
 />
    <glyph glyph-name="uni0000" horiz-adv-x="0" 
 />
    <glyph glyph-name="uni000D" horiz-adv-x="250" 
 />
    <glyph glyph-name="space" unicode=" " horiz-adv-x="404" 
 />
    <glyph glyph-name="exclam" unicode="!" horiz-adv-x="228" 
d="M126 700q14 0 22 -8t8 -22v-430q0 -14 -8 -22t-22 -8h-32q-14 0 -22 8t-8 22v430q0 14 8 22t22 8h32zM128 92q14 0 22 -8t8 -22v-32q0 -14 -8 -22t-22 -8h-32q-14 0 -22 8t-8 22v32q0 14 8 22t22 8h32z" />
    <glyph glyph-name="quotedbl" unicode="&#x22;" horiz-adv-x="357" 
d="M218 669q-1 14 7.5 22.5t22.5 8.5h31q13 0 21.5 -8t8.5 -22l-3 -140q0 -14 -8 -22t-22 -8h-25q-28 0 -30 29zM59 669q-1 14 7.5 22.5t22.5 8.5h31q14 0 22 -8t8 -22l-3 -140q0 -14 -8.5 -22t-21.5 -8h-25q-28 0 -30 29z" />
    <glyph glyph-name="numbersign" unicode="#" horiz-adv-x="830" 
d="M72 421v49q0 14 8 22t22 8h176l70 181q7 19 28 19h48q20 0 27.5 -11t0.5 -30l-62 -159h114l70 182q7 19 28 19h48q20 0 27.5 -11t0.5 -30l-63 -160h49q14 0 22 -8t8 -22v-49q0 -13 -8 -21.5t-22 -8.5h-91l-53 -133h144q14 0 22 -8t8 -22v-49q0 -13 -8 -21.5t-22 -8.5
h-186l-51 -129q-7 -19 -27 -19h-45q-20 0 -27.5 11t-0.5 30l41 107h-116l-51 -130q-7 -19 -27 -19h-45q-20 0 -27.5 11t-0.5 30l42 108h-41q-14 0 -22 8.5t-8 21.5v49q0 14 8 22t22 8h83l51 133h-134q-14 0 -22 8.5t-8 21.5zM295 258h115l52 133h-115z" />
    <glyph glyph-name="dollar" unicode="$" horiz-adv-x="453" 
d="M68 241v429q0 14 8 22t22 8h81v37q0 13 8.5 21.5t21.5 8.5h32q13 0 21.5 -8.5t8.5 -21.5v-37h81q14 0 22 -8t8 -22v-201q0 -13 -8 -21.5t-22 -8.5h-32q-14 0 -22 8.5t-8 21.5v139h-130v-305h192q14 0 22 -8.5t8 -21.5v-243q0 -14 -8 -22t-22 -8h-82v-52q0 -14 -8 -22
t-22 -8h-32q-14 0 -22 8t-8 22v52h-80q-14 0 -22 8t-8 22v32q0 14 8 22t22 8h192v119h-192q-14 0 -22 8.5t-8 21.5z" />
    <glyph glyph-name="ampersand" unicode="&#x26;" horiz-adv-x="521" 
d="M94 0q-14 0 -22 8t-8 22v640q0 14 8 22t22 8h254q14 0 22 -8t8 -22v-32q0 -14 -8 -22t-22 -8h-192v-305h285q13 0 21.5 -8.5t8.5 -21.5v-32q0 -13 -8.5 -21.5t-21.5 -8.5h-63v-181q0 -14 -8 -22t-22 -8h-254zM156 211v-119h130v119h-130z" />
    <glyph glyph-name="quotesingle" unicode="'" horiz-adv-x="209" 
d="M92 500q-28 0 -30 29l-3 140q-1 14 7.5 22.5t22.5 8.5h31q14 0 22 -8t8 -22l-3 -140q0 -14 -8.5 -22t-21.5 -8h-25z" />
    <glyph glyph-name="parenleft" unicode="(" horiz-adv-x="303" 
d="M214 -93q14 0 22 -8.5t8 -21.5v-32q0 -13 -8 -21.5t-22 -8.5h-119q-13 0 -21.5 8.5t-8.5 21.5v917q0 14 8.5 22t21.5 8h121q14 0 22 -8t8 -22v-32q0 -14 -8 -22t-22 -8h-59v-793h57z" />
    <glyph glyph-name="parenright" unicode=")" horiz-adv-x="284" 
d="M49 -123q0 13 8.5 21.5t21.5 8.5h57v793h-59q-13 0 -21.5 8t-8.5 22v32q0 14 8.5 22t21.5 8h121q14 0 22 -8t8 -22v-917q0 -13 -8 -21.5t-22 -8.5h-119q-13 0 -21.5 8.5t-8.5 21.5v32z" />
    <glyph glyph-name="asterisk" unicode="*" horiz-adv-x="305" 
d="M71 614q-19 18 0 37l28 28q8 8 18 8q11 0 19 -8l18 -19l19 19q8 8 18 8q11 0 19 -8l28 -28q18 -19 0 -37l-19 -19l19 -18q18 -19 0 -37l-28 -28q-9 -9 -19 -9q-9 0 -18 9l-19 18l-18 -18q-9 -9 -19 -9q-9 0 -18 9l-28 28q-19 18 0 37l18 18z" />
    <glyph glyph-name="plus" unicode="+" horiz-adv-x="435" 
d="M64 273q0 13 8 21.5t22 8.5h81v79q0 14 8.5 22t21.5 8h32q13 0 21.5 -8t8.5 -22v-79h84q13 0 21.5 -8.5t8.5 -21.5v-32q0 -13 -8.5 -21.5t-21.5 -8.5h-84v-86q0 -13 -8.5 -21.5t-21.5 -8.5h-32q-13 0 -21.5 8.5t-8.5 21.5v86h-81q-14 0 -22 8.5t-8 21.5v32z" />
    <glyph glyph-name="comma" unicode="," horiz-adv-x="201" 
d="M113 92q13 0 21.5 -8t8.5 -22v-109q0 -23 -23 -30l-5 -1q-3 -1 -8 -1q-21 0 -21 23v56h-17q-18 0 -18 18v44q0 14 8.5 22t21.5 8h32z" />
    <glyph glyph-name="hyphen" unicode="-" horiz-adv-x="322" 
d="M231 303q13 0 21.5 -8.5t8.5 -21.5v-32q0 -13 -8.5 -21.5t-21.5 -8.5h-137q-14 0 -22 8.5t-8 21.5v32q0 13 8 21.5t22 8.5h137z" />
    <glyph glyph-name="period" unicode="." horiz-adv-x="192" 
d="M113 92q13 0 21.5 -8t8.5 -22v-32q0 -14 -8.5 -22t-21.5 -8h-32q-13 0 -21.5 8t-8.5 22v32q0 14 8.5 22t21.5 8h32z" />
    <glyph glyph-name="slash" unicode="/" horiz-adv-x="461" 
d="M88 0q-20 0 -27.5 11t-0.5 30l247 640q7 19 28 19h48q20 0 27.5 -11t0.5 -30l-251 -640q-7 -19 -27 -19h-45z" />
    <glyph glyph-name="zero" unicode="0" horiz-adv-x="431" 
d="M64 670q0 14 8 22t22 8h254q14 0 22 -8t8 -22v-640q0 -14 -8 -22t-22 -8h-254q-14 0 -22 8t-8 22v640zM260 608h-104v-425zM188 92h98v404z" />
    <glyph glyph-name="one" unicode="1" horiz-adv-x="336" 
d="M51 638v32q0 14 8.5 22t21.5 8h107q14 0 22 -8t8 -22v-578h55q13 0 21.5 -8t8.5 -22v-32q0 -14 -8.5 -22t-21.5 -8h-192q-13 0 -21.5 8t-8.5 22v32q0 14 8.5 22t21.5 8h45v516h-45q-13 0 -21.5 8t-8.5 22z" />
    <glyph glyph-name="two" unicode="2" horiz-adv-x="397" 
d="M65 0q-13 0 -21.5 8t-8.5 22v56q0 5 2 11l199 511h-108v-140q0 -14 -8 -22t-22 -8h-32q-14 0 -22 8t-8 22v202q0 14 8 22t22 8h253q13 0 21.5 -8t8.5 -22v-56q0 -5 -2 -11l-203 -511h175q13 0 21.5 -8t8.5 -22v-32q0 -14 -8.5 -22t-21.5 -8h-254z" />
    <glyph glyph-name="three" unicode="3" horiz-adv-x="443" 
d="M64 273q0 13 8 21.5t22 8.5h192v305h-130v-141q0 -13 -8 -21.5t-22 -8.5h-32q-14 0 -22 8.5t-8 21.5v203q0 14 8 22t22 8h254q14 0 22 -8t8 -22v-640q0 -14 -8 -22t-22 -8h-254q-14 0 -22 8t-8 22v32q0 14 8 22t22 8h192v119h-192q-14 0 -22 8.5t-8 21.5v32z" />
    <glyph glyph-name="four" unicode="4" horiz-adv-x="429" 
d="M35 87q0 4 2 10l194 583q7 20 29 20h59q13 0 21.5 -8t8.5 -22v-429q0 -13 -8.5 -21.5t-21.5 -8.5h-32q-13 0 -21.5 8.5t-8.5 21.5v186l-113 -335h175q13 0 21.5 -8t8.5 -22v-141q0 -13 -8.5 -21.5t-21.5 -8.5h-32q-13 0 -21.5 8.5t-8.5 21.5v79h-192q-13 0 -21.5 8
t-8.5 22v57z" />
    <glyph glyph-name="five" unicode="5" horiz-adv-x="461" 
d="M68 241v429q0 14 8 22t22 8h254q14 0 22 -8t8 -22v-32q0 -14 -8 -22t-22 -8h-192v-305h192q14 0 22 -8.5t8 -21.5v-243q0 -14 -8 -22t-22 -8h-254q-14 0 -22 8t-8 22v32q0 14 8 22t22 8h192v119h-192q-14 0 -22 8.5t-8 21.5z" />
    <glyph glyph-name="six" unicode="6" 
d="M68 30v640q0 14 8 22t22 8h254q14 0 22 -8t8 -22v-201q0 -13 -8 -21.5t-22 -8.5h-32q-14 0 -22 8.5t-8 21.5v139h-130v-305h192q14 0 22 -8.5t8 -21.5v-243q0 -14 -8 -22t-22 -8h-254q-14 0 -22 8t-8 22zM290 211h-130v-119h130v119z" />
    <glyph glyph-name="seven" unicode="7" horiz-adv-x="386" 
d="M144 30q0 -14 -8 -22t-22 -8h-49q-13 0 -21.5 8t-8.5 22v56q0 5 2 11l199 511h-108v-140q0 -14 -8 -22t-22 -8h-32q-14 0 -22 8t-8 22v202q0 14 8 22t22 8h253q13 0 21.5 -8t8.5 -22v-56q0 -5 -2 -11l-203 -511v-62z" />
    <glyph glyph-name="eight" unicode="8" horiz-adv-x="447" 
d="M94 0q-14 0 -22 8t-8 22v640q0 14 8 22t22 8h254q14 0 22 -8t8 -22v-640q0 -14 -8 -22t-22 -8h-254zM156 608v-305h130v305h-130zM156 211v-119h130v119h-130z" />
    <glyph glyph-name="nine" unicode="9" horiz-adv-x="458" 
d="M68 30v32q0 14 8 22t22 8h192v119h-192q-14 0 -22 8.5t-8 21.5v429q0 14 8 22t22 8h254q14 0 22 -8t8 -22v-640q0 -14 -8 -22t-22 -8h-254q-14 0 -22 8t-8 22zM160 303h130v305h-130v-305z" />
    <glyph glyph-name="colon" unicode=":" horiz-adv-x="191" 
d="M113 92q13 0 21.5 -8t8.5 -22v-32q0 -14 -8.5 -22t-21.5 -8h-32q-13 0 -21.5 8t-8.5 22v32q0 14 8.5 22t21.5 8h32zM110 700q14 0 22 -8t8 -22v-32q0 -14 -8 -22t-22 -8h-32q-14 0 -22 8t-8 22v32q0 14 8 22t22 8h32z" />
    <glyph glyph-name="semicolon" unicode=";" horiz-adv-x="190" 
d="M110 700q14 0 22 -8t8 -22v-32q0 -14 -8 -22t-22 -8h-32q-14 0 -22 8t-8 22v32q0 14 8 22t22 8h32zM113 92q13 0 21.5 -8t8.5 -22v-109q0 -23 -23 -30l-5 -1q-3 -1 -8 -1q-21 0 -21 23v56h-17q-18 0 -18 18v44q0 14 8.5 22t21.5 8h32z" />
    <glyph glyph-name="less" unicode="&#x3c;" horiz-adv-x="486" 
d="M70 333v76q0 22 22 29l269 75q8 2 12 2q26 0 26 -31v-29q0 -22 -22 -29l-200 -56l201 -62q21 -5 21 -28v-29q0 -31 -26 -31q-3 0 -13 2l-269 82q-21 6 -21 29z" />
    <glyph glyph-name="equal" unicode="=" horiz-adv-x="423" 
d="M329 303q13 0 21.5 -8.5t8.5 -21.5v-32q0 -13 -8.5 -21.5t-21.5 -8.5h-235q-14 0 -22 8.5t-8 21.5v32q0 13 8 21.5t22 8.5h235zM327 498q13 0 21.5 -8t8.5 -22v-32q0 -14 -8.5 -22t-21.5 -8h-235q-14 0 -22 8t-8 22v32q0 14 8 22t22 8h235z" />
    <glyph glyph-name="greater" unicode="&#x3e;" horiz-adv-x="465" 
d="M70 484q0 31 26 31q4 0 12 -2l269 -75q22 -7 22 -29v-76q0 -23 -21 -29l-269 -82q-10 -2 -13 -2q-26 0 -26 31v29q0 23 21 28l201 62l-200 56q-22 7 -22 29v29z" />
    <glyph glyph-name="question" unicode="?" horiz-adv-x="434" 
d="M68 469v201q0 14 8 22t22 8h254q14 0 22 -8t8 -22v-449q0 -9 -8 -9h-9l-205 -1h-55q-13 0 -21.5 8.5t-8.5 21.5v32q0 13 8.5 21.5t21.5 8.5h185v305h-130v-139q0 -13 -8 -21.5t-22 -8.5h-32q-14 0 -22 8.5t-8 21.5zM98 0q-14 0 -22 8t-8 22v32q0 14 8 22t22 8h32
q14 0 22 -8t8 -22v-32q0 -14 -8 -22t-22 -8h-32z" />
    <glyph glyph-name="at" unicode="@" horiz-adv-x="659" 
d="M80 670q0 14 8 22t22 8h440q14 0 22 -8t8 -22v-429q0 -13 -8 -21.5t-22 -8.5h-254q-14 0 -22 8.5t-8 21.5v232q0 13 8 21.5t22 8.5h192v105h-316v-489h286q14 0 22 -8.5t8 -21.5v-32q0 -13 -8 -21.5t-22 -8.5h-286v-1h-62q-14 0 -22 8t-8 22v614zM358 411v-108h130v108
h-130z" />
    <glyph glyph-name="A" unicode="A" horiz-adv-x="455" 
d="M68 469v201q0 14 8 22t22 8h254q14 0 22 -8t8 -22v-640q0 -14 -8 -22t-22 -8h-254q-14 0 -22 8t-8 22v243q0 13 8 21.5t22 8.5h192v305h-130v-139q0 -13 -8 -21.5t-22 -8.5h-32q-14 0 -22 8.5t-8 21.5zM290 211h-130v-119h130v119z" />
    <glyph glyph-name="B" unicode="B" 
d="M64 30v640q0 14 8 22t22 8h254q14 0 22 -8t8 -22v-429q0 -13 -8 -21.5t-22 -8.5h-31l58 -113q3 -5 3 -13v-55q0 -14 -8 -22t-22 -8h-254q-14 0 -22 8t-8 22zM286 608h-130v-305h130v305zM156 211v-119h130l-61 119h-69z" />
    <glyph glyph-name="C" unicode="C" horiz-adv-x="440" 
d="M64 670q0 14 8 22t22 8h254q14 0 22 -8t8 -22v-336q0 -14 -8 -22t-22 -8h-32q-14 0 -22 8t-8 22v274h-130v-516h192q14 0 22 -8t8 -22v-32q0 -14 -8 -22t-22 -8h-254q-14 0 -22 8t-8 22v640z" />
    <glyph glyph-name="D" unicode="D" horiz-adv-x="451" 
d="M64 670q0 14 8 22t22 8h254q14 0 22 -8t8 -22v-640q0 -14 -8 -22t-22 -8h-251q-13 0 -21.5 8t-8.5 22v32q0 14 8.5 22t21.5 8h189v516h-130v-375q0 -13 -8 -21.5t-22 -8.5h-32q-14 0 -22 8.5t-8 21.5v437z" />
    <glyph glyph-name="E" unicode="E" horiz-adv-x="455" 
d="M64 670q0 14 8 22t22 8h254q14 0 22 -8t8 -22v-32q0 -14 -8 -22t-22 -8h-192v-305h192q14 0 22 -8.5t8 -21.5v-32q0 -13 -8 -21.5t-22 -8.5h-192v-119h192q14 0 22 -8t8 -22v-32q0 -14 -8 -22t-22 -8h-254q-14 0 -22 8t-8 22v640z" />
    <glyph glyph-name="F" unicode="F" horiz-adv-x="449" 
d="M64 670q0 14 8 22t22 8h254q14 0 22 -8t8 -22v-32q0 -14 -8 -22t-22 -8h-192v-305h192q14 0 22 -8.5t8 -21.5v-32q0 -13 -8 -21.5t-22 -8.5h-192v-181q0 -14 -8 -22t-22 -8h-32q-14 0 -22 8t-8 22v640z" />
    <glyph glyph-name="G" unicode="G" horiz-adv-x="448" 
d="M68 670q0 14 8 22t22 8h254q14 0 22 -8t8 -22v-201q0 -13 -8 -21.5t-22 -8.5h-32q-14 0 -22 8.5t-8 21.5v139h-130v-516h130v120h-35q-13 0 -21.5 8t-8.5 22v32q0 14 8.5 22t21.5 8h95q14 0 22 -8t8 -22l2 -244q0 -14 -8 -22t-22 -8h-254q-14 0 -22 8t-8 22v640z" />
    <glyph glyph-name="H" unicode="H" horiz-adv-x="450" 
d="M64 670q0 14 8 22t22 8h32q14 0 22 -8t8 -22v-367h130v367q0 14 8 22t22 8h32q14 0 22 -8t8 -22v-640q0 -14 -8 -22t-22 -8h-32q-14 0 -22 8t-8 22v181h-130v-181q0 -14 -8 -22t-22 -8h-32q-14 0 -22 8t-8 22v640z" />
    <glyph glyph-name="I" unicode="I" horiz-adv-x="223" 
d="M126 700q14 0 22 -8t8 -22v-640q0 -14 -8 -22t-22 -8h-32q-14 0 -22 8t-8 22v640q0 14 8 22t22 8h32z" />
    <glyph glyph-name="J" unicode="J" horiz-adv-x="359" 
d="M36 63q0 13 8 21.5t22 8.5h137v515h-59q-14 0 -22 8t-8 22v32q0 14 8 22t22 8h121q13 0 21.5 -8t8.5 -22v-639q0 -13 -8.5 -21.5t-21.5 -8.5h-199q-14 0 -22 8.5t-8 21.5v32z" />
    <glyph glyph-name="K" unicode="K" horiz-adv-x="413" 
d="M64 670q0 14 8 22t22 8h32q14 0 22 -8t8 -22v-367h40l106 375q7 22 29 22h29q18 0 26 -10.5t3 -27.5l-104 -368l99 -254q7 -19 -0.5 -30t-27.5 -11h-28q-20 0 -27 19l-76 193h-69v-181q0 -14 -8 -22t-22 -8h-32q-14 0 -22 8t-8 22v640z" />
    <glyph glyph-name="L" unicode="L" horiz-adv-x="385" 
d="M94 0q-14 0 -22 8t-8 22v640q0 14 8 22t22 8h32q14 0 22 -8t8 -22v-578h177q13 0 21.5 -8t8.5 -22v-32q0 -14 -8.5 -22t-21.5 -8h-239z" />
    <glyph glyph-name="M" unicode="M" horiz-adv-x="671" 
d="M94 0q-14 0 -22 8t-8 22v640q0 14 8 22t22 8h41q23 0 29 -21l168 -533l168 533q6 21 29 21h41q14 0 22 -8t8 -22v-640q0 -14 -8 -22t-22 -8h-32q-14 0 -22 8t-8 22v382l-123 -391q-6 -21 -29 -21h-48q-23 0 -29 21l-123 391v-382q0 -14 -8 -22t-22 -8h-32z" />
    <glyph glyph-name="N" unicode="N" horiz-adv-x="471" 
d="M64 670q0 14 8 22t22 8h41q23 0 29 -21l122 -388v379q0 14 8 22t22 8h32q14 0 22 -8t8 -22v-640q0 -14 -8 -22t-22 -8h-40q-23 0 -29 21l-123 391v-382q0 -14 -8 -22t-22 -8h-32q-14 0 -22 8t-8 22v640z" />
    <glyph glyph-name="O" unicode="O" horiz-adv-x="442" 
d="M64 670q0 14 8 22t22 8h254q14 0 22 -8t8 -22v-640q0 -14 -8 -22t-22 -8h-254q-14 0 -22 8t-8 22v640zM156 92h130v516h-130v-516z" />
    <glyph glyph-name="P" unicode="P" horiz-adv-x="447" 
d="M64 30v640q0 14 8 22t22 8h254q14 0 22 -8t8 -22v-429q0 -13 -8 -21.5t-22 -8.5h-192v-181q0 -14 -8 -22t-22 -8h-32q-14 0 -22 8t-8 22zM286 608h-130v-305h130v305z" />
    <glyph glyph-name="Q" unicode="Q" horiz-adv-x="444" 
d="M64 670q0 14 8 22t22 8h254q14 0 22 -8t8 -22v-640q0 -14 -8 -22t-22 -8h-83v-112q0 -14 -8.5 -22t-21.5 -8h-32q-13 0 -21.5 8t-8.5 22v112h-79q-14 0 -22 8t-8 22v640zM156 608v-516h130v516h-130z" />
    <glyph glyph-name="R" unicode="R" horiz-adv-x="436" 
d="M64 30v640q0 14 8 22t22 8h254q14 0 22 -8t8 -22v-429q0 -13 -8 -21.5t-22 -8.5h-31l67 -171q7 -19 -0.5 -30t-27.5 -11h-28q-20 0 -27 19l-76 193h-69v-181q0 -14 -8 -22t-22 -8h-32q-14 0 -22 8t-8 22zM156 608v-305h130v305h-130z" />
    <glyph glyph-name="S" unicode="S" 
d="M68 670q0 14 8 22t22 8h254q14 0 22 -8t8 -22v-201q0 -13 -8 -21.5t-22 -8.5h-32q-14 0 -22 8.5t-8 21.5v139h-130v-305h192q14 0 22 -8.5t8 -21.5v-243q0 -14 -8 -22t-22 -8h-254q-14 0 -22 8t-8 22v32q0 14 8 22t22 8h192v119h-192q-14 0 -22 8.5t-8 21.5v429z" />
    <glyph glyph-name="T" unicode="T" horiz-adv-x="363" 
d="M41 670q0 14 8.5 22t21.5 8h230q13 0 21.5 -8t8.5 -22v-32q0 -14 -8.5 -22t-21.5 -8h-67v-578q0 -14 -8 -22t-22 -8h-32q-14 0 -22 8t-8 22v578h-71q-13 0 -21.5 8t-8.5 22v32z" />
    <glyph glyph-name="U" unicode="U" horiz-adv-x="440" 
d="M64 670q0 14 8 22t22 8h32q14 0 22 -8t8 -22v-578h130v578q0 14 8 22t22 8h32q14 0 22 -8t8 -22v-640q0 -14 -8 -22t-22 -8h-254q-14 0 -22 8t-8 22v640z" />
    <glyph glyph-name="V" unicode="V" horiz-adv-x="381" 
d="M34 666q-2 15 6.5 24.5t23.5 9.5h32q26 0 29 -26l59 -446l64 446q5 26 30 26h31q16 0 24 -9.5t6 -24.5l-92 -640q-5 -26 -30 -26h-69q-26 0 -29 26z" />
    <glyph glyph-name="W" unicode="W" horiz-adv-x="591" 
d="M29 666q-2 15 6.5 24.5t23.5 9.5h32q26 0 29 -26l59 -446l64 446q1 11 9.5 18t19.5 7l39 1q28 0 31 -26l58 -444l64 446q5 26 30 26h31q16 0 24 -9.5t6 -24.5l-92 -640q-5 -26 -30 -26h-69q-26 0 -29 26l-45 336l-48 -338q-5 -26 -30 -26h-69q-26 0 -29 26z" />
    <glyph glyph-name="X" unicode="X" horiz-adv-x="384" 
d="M48 662q-5 17 3 27.5t26 10.5h50q22 0 29 -22l37 -129l37 129q7 22 29 22h50q18 0 26 -10.5t3 -27.5l-89 -309l89 -315q5 -17 -3 -27.5t-26 -10.5h-46q-24 0 -29 22l-41 140l-41 -140q-5 -22 -29 -22h-46q-18 0 -26 10.5t-3 27.5l89 315z" />
    <glyph glyph-name="Y" unicode="Y" 
d="M92 0q-14 0 -22 8t-8 22v32q0 14 8 22t22 8h194v119h-192q-14 0 -22 8.5t-8 21.5v429q0 14 8 22t22 8h32q14 0 22 -8t8 -22v-367h130v367q0 14 8 22t22 8h32q14 0 22 -8t8 -22v-640q0 -14 -8 -22t-22 -8h-256z" />
    <glyph glyph-name="Z" unicode="Z" horiz-adv-x="397" 
d="M65 0q-13 0 -21.5 8t-8.5 22v56q0 5 2 11l199 511h-170q-14 0 -22 8t-8 22v32q0 14 8 22t22 8h253q13 0 21.5 -8t8.5 -22v-56q0 -5 -2 -11l-203 -511h175q13 0 21.5 -8t8.5 -22v-32q0 -14 -8.5 -22t-21.5 -8h-254z" />
    <glyph glyph-name="bracketleft" unicode="[" horiz-adv-x="390" 
d="M65 762q0 14 8.5 22t21.5 8h204q13 0 21.5 -8t8.5 -22v-32q0 -14 -8.5 -22t-21.5 -8h-142v-794h142q13 0 21.5 -8t8.5 -22v-32q0 -14 -8.5 -22t-21.5 -8h-204q-13 0 -21.5 8t-8.5 22v918z" />
    <glyph glyph-name="backslash" unicode="\" horiz-adv-x="447" 
d="M399 41q7 -19 -0.5 -30t-27.5 -11h-45q-20 0 -27 19l-251 640q-7 19 0.5 30t27.5 11h48q21 0 28 -19z" />
    <glyph glyph-name="bracketright" unicode="]" horiz-adv-x="394" 
d="M95 700q-13 0 -21.5 8t-8.5 22v32q0 14 8.5 22t21.5 8h204q13 0 21.5 -8t8.5 -22v-918q0 -14 -8.5 -22t-21.5 -8h-204q-13 0 -21.5 8t-8.5 22v32q0 14 8.5 22t21.5 8h142v794h-142z" />
    <glyph glyph-name="asciicircum" unicode="^" horiz-adv-x="379" 
d="M71 371q-19 0 -26.5 11t-2.5 28l82 269q6 21 29 21h76q22 0 29 -22l75 -269q5 -17 -3 -27.5t-26 -10.5h-29q-22 0 -29 22l-56 200l-62 -201q-5 -21 -28 -21h-29z" />
    <glyph glyph-name="underscore" unicode="_" horiz-adv-x="428" 
d="M329 -95q13 0 21.5 -8.5t8.5 -21.5v-32q0 -13 -8.5 -21.5t-21.5 -8.5h-235q-14 0 -22 8.5t-8 21.5v32q0 13 8 21.5t22 8.5h235z" />
    <glyph glyph-name="grave" unicode="`" horiz-adv-x="281" 
d="M224 665q8 -17 2 -27t-25 -10h-24q-17 0 -27 16l-81 149q-10 18 -3.5 29t27.5 11h28q17 0 26 -16z" />
    <glyph glyph-name="a" unicode="a" horiz-adv-x="455" 
d="M68 469v201q0 14 8 22t22 8h254q14 0 22 -8t8 -22v-640q0 -14 -8 -22t-22 -8h-254q-14 0 -22 8t-8 22v243q0 13 8 21.5t22 8.5h192v305h-130v-139q0 -13 -8 -21.5t-22 -8.5h-32q-14 0 -22 8.5t-8 21.5zM290 211h-130v-119h130v119z" />
    <glyph glyph-name="b" unicode="b" 
d="M64 30v640q0 14 8 22t22 8h254q14 0 22 -8t8 -22v-429q0 -13 -8 -21.5t-22 -8.5h-31l58 -113q3 -5 3 -13v-55q0 -14 -8 -22t-22 -8h-254q-14 0 -22 8t-8 22zM286 608h-130v-305h130v305zM156 211v-119h130l-61 119h-69z" />
    <glyph glyph-name="c" unicode="c" horiz-adv-x="440" 
d="M64 670q0 14 8 22t22 8h254q14 0 22 -8t8 -22v-336q0 -14 -8 -22t-22 -8h-32q-14 0 -22 8t-8 22v274h-130v-516h192q14 0 22 -8t8 -22v-32q0 -14 -8 -22t-22 -8h-254q-14 0 -22 8t-8 22v640z" />
    <glyph glyph-name="d" unicode="d" horiz-adv-x="451" 
d="M64 670q0 14 8 22t22 8h254q14 0 22 -8t8 -22v-640q0 -14 -8 -22t-22 -8h-251q-13 0 -21.5 8t-8.5 22v32q0 14 8.5 22t21.5 8h189v516h-130v-375q0 -13 -8 -21.5t-22 -8.5h-32q-14 0 -22 8.5t-8 21.5v437z" />
    <glyph glyph-name="e" unicode="e" horiz-adv-x="455" 
d="M64 670q0 14 8 22t22 8h254q14 0 22 -8t8 -22v-32q0 -14 -8 -22t-22 -8h-192v-305h192q14 0 22 -8.5t8 -21.5v-32q0 -13 -8 -21.5t-22 -8.5h-192v-119h192q14 0 22 -8t8 -22v-32q0 -14 -8 -22t-22 -8h-254q-14 0 -22 8t-8 22v640z" />
    <glyph glyph-name="f" unicode="f" horiz-adv-x="449" 
d="M64 670q0 14 8 22t22 8h254q14 0 22 -8t8 -22v-32q0 -14 -8 -22t-22 -8h-192v-305h192q14 0 22 -8.5t8 -21.5v-32q0 -13 -8 -21.5t-22 -8.5h-192v-181q0 -14 -8 -22t-22 -8h-32q-14 0 -22 8t-8 22v640z" />
    <glyph glyph-name="g" unicode="g" horiz-adv-x="448" 
d="M68 670q0 14 8 22t22 8h254q14 0 22 -8t8 -22v-201q0 -13 -8 -21.5t-22 -8.5h-32q-14 0 -22 8.5t-8 21.5v139h-130v-516h130v120h-35q-13 0 -21.5 8t-8.5 22v32q0 14 8.5 22t21.5 8h95q14 0 22 -8t8 -22l2 -244q0 -14 -8 -22t-22 -8h-254q-14 0 -22 8t-8 22v640z" />
    <glyph glyph-name="h" unicode="h" horiz-adv-x="450" 
d="M64 670q0 14 8 22t22 8h32q14 0 22 -8t8 -22v-367h130v367q0 14 8 22t22 8h32q14 0 22 -8t8 -22v-640q0 -14 -8 -22t-22 -8h-32q-14 0 -22 8t-8 22v181h-130v-181q0 -14 -8 -22t-22 -8h-32q-14 0 -22 8t-8 22v640z" />
    <glyph glyph-name="i" unicode="i" horiz-adv-x="223" 
d="M126 700q14 0 22 -8t8 -22v-640q0 -14 -8 -22t-22 -8h-32q-14 0 -22 8t-8 22v640q0 14 8 22t22 8h32z" />
    <glyph glyph-name="j" unicode="j" horiz-adv-x="325" 
d="M19 62q0 14 8.5 22t21.5 8h120v516h-59q-14 0 -22 8t-8 22v32q0 14 8 22t22 8h121q13 0 21.5 -8t8.5 -22v-640q0 -14 -8.5 -22t-21.5 -8h-182q-13 0 -21.5 8t-8.5 22v32z" />
    <glyph glyph-name="k" unicode="k" horiz-adv-x="413" 
d="M64 670q0 14 8 22t22 8h32q14 0 22 -8t8 -22v-367h40l106 375q7 22 29 22h29q18 0 26 -10.5t3 -27.5l-104 -368l99 -254q7 -19 -0.5 -30t-27.5 -11h-28q-20 0 -27 19l-76 193h-69v-181q0 -14 -8 -22t-22 -8h-32q-14 0 -22 8t-8 22v640z" />
    <glyph glyph-name="l" unicode="l" horiz-adv-x="385" 
d="M94 0q-14 0 -22 8t-8 22v640q0 14 8 22t22 8h32q14 0 22 -8t8 -22v-578h177q13 0 21.5 -8t8.5 -22v-32q0 -14 -8.5 -22t-21.5 -8h-239z" />
    <glyph glyph-name="m" unicode="m" horiz-adv-x="671" 
d="M94 0q-14 0 -22 8t-8 22v640q0 14 8 22t22 8h41q23 0 29 -21l168 -533l168 533q6 21 29 21h41q14 0 22 -8t8 -22v-640q0 -14 -8 -22t-22 -8h-32q-14 0 -22 8t-8 22v382l-123 -391q-6 -21 -29 -21h-48q-23 0 -29 21l-123 391v-382q0 -14 -8 -22t-22 -8h-32z" />
    <glyph glyph-name="n" unicode="n" horiz-adv-x="471" 
d="M64 670q0 14 8 22t22 8h41q23 0 29 -21l122 -388v379q0 14 8 22t22 8h32q14 0 22 -8t8 -22v-640q0 -14 -8 -22t-22 -8h-40q-23 0 -29 21l-123 391v-382q0 -14 -8 -22t-22 -8h-32q-14 0 -22 8t-8 22v640z" />
    <glyph glyph-name="o" unicode="o" horiz-adv-x="442" 
d="M64 670q0 14 8 22t22 8h254q14 0 22 -8t8 -22v-640q0 -14 -8 -22t-22 -8h-254q-14 0 -22 8t-8 22v640zM156 92h130v516h-130v-516z" />
    <glyph glyph-name="p" unicode="p" horiz-adv-x="447" 
d="M64 30v640q0 14 8 22t22 8h254q14 0 22 -8t8 -22v-429q0 -13 -8 -21.5t-22 -8.5h-192v-181q0 -14 -8 -22t-22 -8h-32q-14 0 -22 8t-8 22zM286 608h-130v-305h130v305z" />
    <glyph glyph-name="q" unicode="q" horiz-adv-x="444" 
d="M64 670q0 14 8 22t22 8h254q14 0 22 -8t8 -22v-640q0 -14 -8 -22t-22 -8h-83v-112q0 -14 -8.5 -22t-21.5 -8h-32q-13 0 -21.5 8t-8.5 22v112h-79q-14 0 -22 8t-8 22v640zM156 608v-516h130v516h-130z" />
    <glyph glyph-name="r" unicode="r" horiz-adv-x="436" 
d="M64 30v640q0 14 8 22t22 8h254q14 0 22 -8t8 -22v-429q0 -13 -8 -21.5t-22 -8.5h-31l67 -171q7 -19 -0.5 -30t-27.5 -11h-28q-20 0 -27 19l-76 193h-69v-181q0 -14 -8 -22t-22 -8h-32q-14 0 -22 8t-8 22zM156 608v-305h130v305h-130z" />
    <glyph glyph-name="s" unicode="s" 
d="M68 670q0 14 8 22t22 8h254q14 0 22 -8t8 -22v-201q0 -13 -8 -21.5t-22 -8.5h-32q-14 0 -22 8.5t-8 21.5v139h-130v-305h192q14 0 22 -8.5t8 -21.5v-243q0 -14 -8 -22t-22 -8h-254q-14 0 -22 8t-8 22v32q0 14 8 22t22 8h192v119h-192q-14 0 -22 8.5t-8 21.5v429z" />
    <glyph glyph-name="t" unicode="t" horiz-adv-x="363" 
d="M41 670q0 14 8.5 22t21.5 8h230q13 0 21.5 -8t8.5 -22v-32q0 -14 -8.5 -22t-21.5 -8h-67v-578q0 -14 -8 -22t-22 -8h-32q-14 0 -22 8t-8 22v578h-71q-13 0 -21.5 8t-8.5 22v32z" />
    <glyph glyph-name="u" unicode="u" horiz-adv-x="440" 
d="M64 670q0 14 8 22t22 8h32q14 0 22 -8t8 -22v-578h130v578q0 14 8 22t22 8h32q14 0 22 -8t8 -22v-640q0 -14 -8 -22t-22 -8h-254q-14 0 -22 8t-8 22v640z" />
    <glyph glyph-name="v" unicode="v" horiz-adv-x="381" 
d="M34 666q-2 15 6.5 24.5t23.5 9.5h32q26 0 29 -26l59 -446l64 446q5 26 30 26h31q16 0 24 -9.5t6 -24.5l-92 -640q-5 -26 -30 -26h-69q-26 0 -29 26z" />
    <glyph glyph-name="w" unicode="w" horiz-adv-x="591" 
d="M29 666q-2 15 6.5 24.5t23.5 9.5h32q26 0 29 -26l59 -446l64 446q1 11 9.5 18t19.5 7l39 1q28 0 31 -26l58 -444l64 446q5 26 30 26h31q16 0 24 -9.5t6 -24.5l-92 -640q-5 -26 -30 -26h-69q-26 0 -29 26l-45 336l-48 -338q-5 -26 -30 -26h-69q-26 0 -29 26z" />
    <glyph glyph-name="x" unicode="x" horiz-adv-x="384" 
d="M48 662q-5 17 3 27.5t26 10.5h50q22 0 29 -22l37 -129l37 129q7 22 29 22h50q18 0 26 -10.5t3 -27.5l-89 -309l89 -315q5 -17 -3 -27.5t-26 -10.5h-46q-24 0 -29 22l-41 140l-41 -140q-5 -22 -29 -22h-46q-18 0 -26 10.5t-3 27.5l89 315z" />
    <glyph glyph-name="y" unicode="y" 
d="M92 0q-14 0 -22 8t-8 22v32q0 14 8 22t22 8h194v119h-192q-14 0 -22 8.5t-8 21.5v429q0 14 8 22t22 8h32q14 0 22 -8t8 -22v-367h130v367q0 14 8 22t22 8h32q14 0 22 -8t8 -22v-640q0 -14 -8 -22t-22 -8h-256z" />
    <glyph glyph-name="z" unicode="z" horiz-adv-x="397" 
d="M65 0q-13 0 -21.5 8t-8.5 22v56q0 5 2 11l199 511h-170q-14 0 -22 8t-8 22v32q0 14 8 22t22 8h253q13 0 21.5 -8t8.5 -22v-56q0 -5 -2 -11l-203 -511h175q13 0 21.5 -8t8.5 -22v-32q0 -14 -8.5 -22t-21.5 -8h-254z" />
    <glyph glyph-name="braceleft" unicode="{" horiz-adv-x="441" 
d="M64 367q0 13 8 21.5t22 8.5h89v365q0 14 8.5 22t21.5 8h121q14 0 22 -8t8 -22v-32q0 -14 -8 -22t-22 -8h-59v-793h57q14 0 22 -8.5t8 -21.5v-32q0 -13 -8 -21.5t-22 -8.5h-119q-13 0 -21.5 8.5t-8.5 21.5v460h-89q-14 0 -22 8.5t-8 21.5v32z" />
    <glyph glyph-name="bar" unicode="|" horiz-adv-x="312" 
d="M138 -250q-14 0 -22 8t-8 22v982q0 14 8 22t22 8h29q13 0 21.5 -8t8.5 -22v-982q0 -14 -8.5 -22t-21.5 -8h-29z" />
    <glyph glyph-name="braceright" unicode="}" horiz-adv-x="407" 
d="M64 730v32q0 14 8 22t22 8h121q13 0 21.5 -8t8.5 -22v-365h89q14 0 22 -8.5t8 -21.5v-32q0 -13 -8 -21.5t-22 -8.5h-89v-460q0 -13 -8.5 -21.5t-21.5 -8.5h-119q-14 0 -22 8.5t-8 21.5v32q0 13 8 21.5t22 8.5h57v793h-59q-14 0 -22 8t-8 22z" />
  </font>
</defs>
</svg>
